<svg xmlns="http://www.w3.org/2000/svg" viewBox="0 0 509.1937485 396.4866609"><path d="M48.155 1.703c-3.262.484-6.419 12.522-12.733 18.815-4.63 4.525-10.408 4.251-13.47 9.85-1.158 2.083-.79 5.66-2.105 9.08-2.588 6.862-11.67 7.472-11.67 14.944-.032 8.07 7.576 9.607 14.164 15.342 5.156 4.599 5.64 7.777 11.87 10.018 5.325 1.79 13.238-4.104 20.362-1.978 5.84 1.736 11.439 2.989 12.765 8.997 1.168 5.546-.084 14.122-7.177 13.133-2.389-.273-12.765-3.757-25.487-2.399-15.364 1.747-32.906 6.756-34.62 23.887-.948 9.577 10.901 20.868 22.34 18.574 7.902-1.547 4.167-10.881 8.46-15.406 5.651-5.809 37.652 20.257 67.38 20.257 12.523 0 21.836-3.167 31.085-12.849.863-.747 1.916-2.325 3.262-2.43 1.263.105 3.452 1.346 4.178 1.873 23.94 19.246 42.05 57.866 130.076 58.298 12.386.084 26.476 5.998 38 16.5 10.27 9.492 16.269 24.277 22.109 39.251 8.818 22.499 24.592 44.376 48.532 68.716 1.305 1.305 21.015 16.627 22.593 17.763.242.179 1.695 3.63 1.19 5.556-.58 14.606-2.706 57.036 28.938 58.972 7.734.39 5.714-5.051 5.714-8.787-.021-7.398-1.368-14.743 2.525-22.32 5.325-10.417-11.301-15.195-10.817-37.704.347-16.784-13.754-13.922-20.9-26.707-4.125-7.409-7.787-11.334-7.524-20.394 1.61-50.985-10.839-84.501-17.047-92.72-4.862-6.208-8.871-8.67-4.441-11.543 26.413-17.469 32.411-33.674 32.411-33.674 14.038-33.011 26.666-63.16 44.092-76.44 3.494-2.747 12.491-9.471 18.005-12.102 16.258-7.65 24.803-12.312 29.528-16.89 7.472-7.271 13.375-22.456 6.21-31.653-8.903-11.365-24.299-2.347-31.086 1.684-48.553 28.812-55.71 79.639-72.525 108.83-13.418 23.32-35.232 40.45-54.742 41.85-14.606 1.084-30.38-1.873-46.07-8.766-38.167-16.731-59.035-38.335-63.98-42.155-10.26-7.914-89.858-86.08-154.364-89.257 0 0-7.998-16.038-10.019-16.29-4.714-.61-9.544 9.565-13.007 10.755-3.251 1.073-8.723-11.018-11.996-10.481"/></svg>